<?xml version="1.0" encoding="utf-8" ?><svg xmlns="http://www.w3.org/2000/svg" xmlns:xlink="http://www.w3.org/1999/xlink" width="1024" height="1024" viewBox="0 0 1024 1024"><path fill="#4B68F5" d="M259.669 150.708L260.347 150.659C270.541 149.954 285.351 150.351 295.902 150.35L359.17 150.326L561.611 150.283L699.696 150.273L739.784 150.286C751.466 150.3 762.459 149.91 773.995 151.647C796.353 155.013 816.035 163.097 833.021 177.849C856.796 198.498 872.312 226.793 873.777 258.496C874.329 270.437 874.042 284.03 874.037 296.148L874.018 363.349L874.008 573.894L874.016 708.631L874.012 746.935C874.002 756.268 874.284 766.956 872.899 776.068C869.434 797.762 859.847 818.015 845.264 834.445C824.961 857.653 796.214 871.768 765.436 873.641C753.171 874.339 738.105 873.961 725.624 873.964L657.975 873.971L449.294 873.954L320.099 873.922L281.446 873.919C270.706 873.906 259.667 874.132 249.037 872.627C228.291 869.495 208.793 860.76 192.645 847.364C168.093 826.665 153.772 799.989 151.364 767.958C150.361 754.617 150.643 740.489 150.662 727.063L150.812 665.523L150.827 480.895L150.675 332.869L150.597 289.517C150.576 275.082 150.343 260.687 152.555 246.371C155.809 225.849 164.753 206.651 178.371 190.958C199.532 166.105 227.289 153.296 259.669 150.708Z"/><path fill="white" d="M419.43 310.582C435.375 306.458 458.37 302.882 474.953 299.809L557.871 283.961L614.617 273.189C624.122 271.398 635.29 268.778 644.53 268.061C658.925 266.945 673.14 280.004 675.326 293.883C676.199 299.423 677.846 304.988 678.127 310.571C699.49 310.535 717.861 308.528 734.32 324.965C750.268 340.89 748.617 357.647 748.689 378.176L748.732 410.311L748.563 458.162C748.578 469.529 749.258 484.367 747.332 495.105C748.192 497.493 747.592 499.948 747.671 502.516C749.717 505.491 747.916 547.905 748.529 554.527C748.701 556.381 748.576 566.461 748.424 568.756L748.5 665.267C748.494 674.859 748.285 684.741 748.465 694.399C748.783 711.425 747.295 727.007 734.636 739.792C720.168 754.405 703.799 754.265 684.545 754.333L427.649 754.388L356.402 754.442C343.878 754.454 328.628 754.844 316.29 753.477C306.987 752.445 296.1 745.481 289.525 738.882C283.589 732.932 279.451 725.429 277.586 717.233C275.222 706.496 275.946 677.89 275.925 665.519L276.051 574.802C276.062 574.456 276.074 574.111 276.086 573.765C275.561 559.709 276.242 543.956 276.041 529.731C275.959 523.926 275.652 507.777 276.223 502.999L276.826 502.69C276.675 499.41 276.869 497.742 277.203 494.487C275.145 484.184 275.95 468.328 275.95 457.436L275.982 406.205L275.99 374.549C276.005 356.041 275.261 341.022 288.774 326.377C295.204 319.509 303.473 314.635 312.596 312.335C323.413 309.633 340.712 310.786 352.293 310.659C374.356 310.419 397.424 311.506 419.43 310.582Z"/><path fill="white" d="M419.43 310.582C435.375 306.458 458.37 302.882 474.953 299.809L557.871 283.961L614.617 273.189C624.122 271.398 635.29 268.778 644.53 268.061C658.925 266.945 673.14 280.004 675.326 293.883C676.199 299.423 677.846 304.988 678.127 310.571C699.49 310.535 717.861 308.528 734.32 324.965C750.268 340.89 748.617 357.647 748.689 378.176L748.732 410.311L748.563 458.162C748.578 469.529 749.258 484.367 747.332 495.105C743.101 509.208 736.133 519.622 722.807 526.695C718.29 529.111 713.422 530.804 708.381 531.714C701.804 532.881 692.82 532.68 685.932 532.743L655.805 532.995C652.638 514.92 651.736 503.039 643.589 485.704C627.257 450.956 598.53 422.866 562.193 409.772C525.573 396.328 485.08 398.221 449.874 415.022C413.843 432.164 386.636 463.61 374.854 501.732C373.334 506.753 372.291 511.447 371.188 516.525C370.257 520.804 370.037 528.924 368.55 532.616C358.34 532.549 348.129 532.551 337.918 532.621C331.586 532.633 323.939 532.89 317.806 531.935C312.34 531.116 307.051 529.386 302.157 526.817C288.138 519.418 281.721 509.133 277.203 494.487C275.145 484.184 275.95 468.328 275.95 457.436L275.982 406.205L275.99 374.549C276.005 356.041 275.261 341.022 288.774 326.377C295.204 319.509 303.473 314.635 312.596 312.335C323.413 309.633 340.712 310.786 352.293 310.659C374.356 310.419 397.424 311.506 419.43 310.582Z"/><path fill="#1C2F9A" d="M419.43 310.582C435.375 306.458 458.37 302.882 474.953 299.809L557.871 283.961L614.617 273.189C624.122 271.398 635.29 268.778 644.53 268.061C658.925 266.945 673.14 280.004 675.326 293.883C676.199 299.423 677.846 304.988 678.127 310.571L419.43 310.582Z"/><path fill="#4B68F5" d="M368.55 532.616C370.037 528.924 370.257 520.804 371.188 516.525C372.291 511.447 373.334 506.753 374.854 501.732C386.636 463.61 413.843 432.164 449.874 415.022C485.08 398.221 525.573 396.328 562.193 409.772C598.53 422.866 627.257 450.956 643.589 485.704C651.736 503.039 652.638 514.92 655.805 532.995C656.508 542.418 656.276 551.888 655.113 561.265C654.72 564.637 651.306 580.54 651.55 582.237C652.655 582.535 652.923 582.617 654.054 582.717C652.139 582.828 651.167 582.969 650.569 584.899C647.688 594.196 644.812 602.43 640.38 611.202C623.025 645.439 592.699 671.314 556.156 683.064C521.873 694.193 479.791 691.113 447.533 674.746C419.646 660.597 396.274 636.131 382.546 608C378.656 600.028 376.03 591.242 373.28 582.783C368.576 582.87 364.011 583.045 359.317 582.63L372.943 582.525C370.38 572.079 369.186 561.779 368.465 551.066C368.222 547.465 369.119 534.911 368.55 532.616Z"/><path fill="white" d="M502.956 438.478C561.742 433.392 613.574 476.797 618.89 535.563C624.205 594.329 581.003 646.33 522.259 651.876C463.188 657.452 410.835 613.958 405.49 554.866C400.145 495.774 443.843 443.592 502.956 438.478Z"/><path fill="#1C2F9A" d="M508.536 468.127C511.868 468.27 515.407 468.284 518.76 468.354L519.011 478.906C526.867 479.411 533.634 481.109 540.287 485.524C550.203 492.105 552.1 500.985 554.272 511.667C548.223 513.259 539.508 515.069 533.38 515.878C531.763 505.918 529.621 497.177 518.861 493.746L519.011 532.222C528.546 534.978 538.462 537.392 545.908 543.364C564.895 558.591 562.338 589.686 540.335 600.835C531.336 605.395 528.234 605.926 518.455 606.851L518.458 621.541L508.039 621.519L508.04 606.872C482.555 604.839 471.774 596.848 466.651 570.889C473.885 569.798 482.107 567.948 489.356 566.477C491.295 580.129 493.99 588.332 508.114 593.066C508.245 579.908 508.074 566.459 508.047 553.278C498.421 550.326 488.873 548 480.671 541.831C465.048 530.08 464.998 507.055 476.875 492.614C484.917 482.836 496.298 479.701 508.417 478.35C508.422 474.942 508.461 471.534 508.536 468.127Z"/><path fill="white" d="M518.391 556.174C527.975 558.022 538.425 562.373 538.221 573.748C538.106 580.118 536.598 582.709 532.249 587.153C527.754 590.867 523.978 592.052 518.408 593.494L518.391 556.174Z"/><path fill="white" d="M507.162 493.089C507.299 493.116 507.826 493.199 507.829 493.303C508.082 500.475 508.327 524.173 508.197 529.869C503.788 528.054 501.386 527.417 497.085 525.07C487.107 517.152 489.272 503.016 499.205 495.926C501.216 494.49 504.758 493.641 507.162 493.089Z"/><path fill="#1C2F9A" d="M277.203 494.487C281.721 509.133 288.138 519.418 302.157 526.817C307.051 529.386 312.34 531.116 317.806 531.935C323.939 532.89 331.586 532.633 337.918 532.621C348.129 532.551 358.34 532.549 368.55 532.616C369.119 534.911 368.222 547.465 368.465 551.066C369.186 561.779 370.38 572.079 372.943 582.525L359.317 582.63C320.052 581.902 288.224 556.55 279.34 518.464C278.432 514.572 277.723 510.845 277.042 506.914L276.826 502.69C276.675 499.41 276.869 497.742 277.203 494.487Z"/><path fill="#1C2F9A" d="M747.332 495.105C748.192 497.493 747.592 499.948 747.671 502.516L747.208 508.561C743.472 532.476 733.861 552.155 713.949 566.585C693.558 581.361 677.859 582.46 654.054 582.717C652.923 582.617 652.655 582.535 651.55 582.237C651.306 580.54 654.72 564.637 655.113 561.265C656.276 551.888 656.508 542.418 655.805 532.995L685.932 532.743C692.82 532.68 701.804 532.881 708.381 531.714C713.422 530.804 718.29 529.111 722.807 526.695C736.133 519.622 743.101 509.208 747.332 495.105Z"/><path fill="#CFCFFF" d="M276.086 573.765C275.561 559.709 276.242 543.956 276.041 529.731C275.959 523.926 275.652 507.777 276.223 502.999L276.826 502.69L277.042 506.914C276.204 510.27 276.498 518 276.503 521.738L276.543 556.206C276.542 559.768 276.672 570.704 276.086 573.765Z"/><path fill="#CFCFFF" d="M747.671 502.516C749.717 505.491 747.916 547.905 748.529 554.527C748.701 556.381 748.576 566.461 748.424 568.756C747.565 561.024 748.836 511.202 747.208 508.561L747.671 502.516Z"/></svg>