<?xml version="1.0" encoding="utf-8" ?><svg xmlns="http://www.w3.org/2000/svg" xmlns:xlink="http://www.w3.org/1999/xlink" width="1024" height="1024" viewBox="0 0 1024 1024"><path fill="#4B68F5" d="M499.706 140.732C568.601 139.747 677.912 146.776 740.566 174.772C763.097 185.07 783.715 199.119 801.54 216.321C821.922 235.94 838.758 260.712 850.031 286.614C873.428 340.374 883.006 431.174 884.142 490.204C885.361 553.57 881.153 618.06 867.546 680.072C863.26 699.605 858.298 718.911 850.377 737.323C839.757 762.124 824.675 784.765 805.881 804.122C757.276 854.511 702.924 866.577 636.073 875.633C599.785 880.549 563.239 883.322 526.625 883.937C459.131 884.453 351.572 878.345 290.524 852.934C265.261 842.418 242.988 827.661 223.114 808.882C173.488 761.991 157.949 702.406 148.736 637.076C144.105 605.245 141.383 573.166 140.582 541.01C138.561 482.035 142.635 423.008 152.74 364.87C162.604 310.215 175.74 266.551 214.466 224.47C259.001 176.078 312.476 159.853 375.808 150.765C418.012 144.708 456.949 141.855 499.706 140.732Z"/><path fill="white" d="M270.064 476.601C276.932 430.501 296.645 387.267 326.945 351.85C367.286 304.506 429.769 273.883 491.65 269.06C539.571 265.01 587.632 275.05 629.923 297.948C639.116 302.871 653.361 311.599 661.278 318.384C667.926 311.811 674.54 305.203 681.117 298.558C692.258 287.32 700.589 276.023 717.789 276.282C726.412 276.412 733.545 279.811 739.532 285.981C745.523 292.105 748.748 300.413 748.458 308.976C748.089 323.993 739.596 330.992 729.74 340.541L713.731 355.888C711.578 357.94 707.05 362.005 705.461 364.19C709.646 366.993 714.611 375.501 717.427 379.879C734.791 406.873 745.838 435.082 752.093 466.593C764.367 529.268 751.004 594.248 714.994 646.993C680.133 698.942 621.761 738.65 560.256 750.326C491.316 763.414 430.039 750.238 372.309 711.25C320.153 675.5 284.095 620.725 271.875 558.686C271.36 555.99 270.372 549.91 270.503 547.167C256.16 547.529 241.605 548.448 230.074 538.282C215.394 525.341 213.856 502.543 227.198 487.936C231.519 483.148 237.176 479.764 243.438 478.221C252.879 475.868 267.872 477.166 277.849 476.976C298.041 476.592 320.103 477.786 340.129 476.891C333.941 476.368 322.604 476.697 316.071 476.7C300.735 476.749 285.399 476.716 270.064 476.601Z"/><path fill="#1C2F9A" d="M661.278 318.384C667.926 311.811 674.54 305.203 681.117 298.558C692.258 287.32 700.589 276.023 717.789 276.282C726.412 276.412 733.545 279.811 739.532 285.981C745.523 292.105 748.748 300.413 748.458 308.976C748.089 323.993 739.596 330.992 729.74 340.541L713.731 355.888C711.578 357.94 707.05 362.005 705.461 364.19C701.341 367.73 696.359 373.321 692.303 377.293L655.472 413.758L592.041 476.189C576.352 491.551 560.712 507.012 545.002 522.355C541.852 525.756 540.215 530.626 536.885 533.886C525.606 544.926 506.36 545.706 493.603 536.822C489.645 534.204 487.406 530.55 484.737 526.812C478.418 517.963 469.435 510.351 461.707 502.601C446.743 487.315 431.599 472.206 416.279 457.276C394.566 435.952 408.442 401.191 438.913 401.535C452.956 401.694 458.153 408.369 467.43 417.616C472.915 423.081 478.39 428.789 483.826 434.362L514.679 465.521C520.253 459.474 526.702 453.417 532.551 447.552C543.648 436.254 554.827 425.036 566.087 413.9L661.278 318.384Z"/><path fill="#1C2F9A" d="M270.503 547.167C256.16 547.529 241.605 548.448 230.074 538.282C215.394 525.341 213.856 502.543 227.198 487.936C231.519 483.148 237.176 479.764 243.438 478.221C252.879 475.868 267.872 477.166 277.849 476.976C298.041 476.592 320.103 477.786 340.129 476.891C350.976 476.934 358.661 479.119 366.576 487.127C373.317 493.941 377.002 503.199 376.788 512.781C376.626 522.01 373.111 530.782 366.422 537.21C362.123 541.395 356.79 544.363 350.969 545.812C346.322 546.94 341.921 546.961 337.183 547.022C315.001 547.303 292.668 546.614 270.503 547.167Z"/><path fill="#FEFB14" d="M643.827 517.188C654.889 515.75 665.41 519.568 673.34 527.303C680.922 534.568 685.286 544.562 685.459 555.062C685.509 561.61 682.9 572.267 678.645 577.152C667.565 589.871 653.957 602.1 642.109 614.026L546.292 710.178C534.43 722.053 521.574 725.41 505.053 722.577C492.479 720.422 484.68 711.521 476.103 702.922L458.319 685.041C449.635 676.392 440.7 667.894 432.256 659.016C424.301 650.653 419.201 641.039 419.613 629.242C419.949 619.629 424.225 609.748 431.31 603.193C438.872 596.197 450.183 591.734 460.522 592.183C465.665 592.406 471.052 593.853 475.541 596.382C485.24 601.845 506.39 624.623 514.775 633.631C519.256 628.323 526.862 621.111 531.848 616.178L561.289 586.968L600.614 547.662C603.781 544.476 607.034 541.201 610.179 538.004C621.192 526.812 627.472 518.929 643.827 517.188Z"/></svg>