<?xml version="1.0" encoding="utf-8" ?><svg xmlns="http://www.w3.org/2000/svg" xmlns:xlink="http://www.w3.org/1999/xlink" width="1024" height="1024" viewBox="0 0 1024 1024"><path fill="#4B68F5" d="M277.715 752.367C144.26 622.198 142.478 408.207 273.747 275.834C405.016 143.462 619.015 143.452 750.296 275.813C881.577 408.173 879.815 622.165 746.372 752.345C616.031 879.5 408.068 879.509 277.715 752.367ZM394.454 360.805C381.437 363.596 371.551 369.085 364.088 380.596C357.195 391.365 354.867 404.433 357.618 416.92C360.209 428.78 367.448 439.104 377.715 445.581C383.236 449.015 388.565 450.629 394.865 451.977C398.516 488.714 413.173 519.653 442.036 543.204C464.926 561.665 494.24 570.221 523.467 566.971C523.809 566.935 524.151 566.896 524.492 566.855C558.623 561.534 584.609 545.793 605.654 518.047C618.378 501.273 628.734 473.483 630.195 452.161C682.291 438.558 678.918 370.808 630.049 360.942C630.114 357.299 630.127 353.641 630.211 350.001C630.922 319.17 621.03 288.153 599.402 265.6C577.157 242.281 546.471 228.883 514.246 228.419C510.014 228.325 505.781 228.421 501.557 228.707C470.428 231.18 441.553 245.912 421.28 269.665C406.964 286.544 396.786 310.488 394.909 332.516C394.181 341.057 394.428 352.01 394.454 360.805Z"/><path fill="white" d="M613.883 561.672C675.052 582.554 720.156 623.104 739.302 686.344C746.565 710.336 746.951 727.588 746.372 752.345C616.031 879.5 408.068 879.509 277.715 752.367C273.733 713.266 284.748 674.186 305.58 641.125C330.562 601.477 366.212 576.308 410.416 561.894C415.618 568.045 421.024 574.659 426.904 580.117C446.604 598.403 474.4 609.987 501.13 612.206C535.299 615.075 569.189 604.107 595.197 581.761C602.326 575.713 608.085 568.932 613.883 561.672Z"/><path fill="white" d="M501.557 228.707C505.781 228.421 510.014 228.325 514.246 228.419C546.471 228.883 577.157 242.281 599.402 265.6C621.03 288.153 630.922 319.17 630.211 350.001C630.127 353.641 630.114 357.299 630.049 360.942C678.918 370.808 682.291 438.558 630.195 452.161C628.734 473.483 618.378 501.273 605.654 518.047C584.609 545.793 558.623 561.534 524.492 566.855C524.151 566.896 523.809 566.935 523.467 566.971C494.24 570.221 464.926 561.665 442.036 543.204C413.173 519.653 398.516 488.714 394.865 451.977C388.565 450.629 383.236 449.015 377.715 445.581C367.448 439.104 360.209 428.78 357.618 416.92C354.867 404.433 357.195 391.365 364.088 380.596C371.551 369.085 381.437 363.596 394.454 360.805C394.428 352.01 394.181 341.057 394.909 332.516C396.786 310.488 406.964 286.544 421.28 269.665C441.553 245.912 470.428 231.18 501.557 228.707ZM522.717 484.298C515.162 485.678 511.057 485.533 503.39 484.815C492.592 481.259 492.459 481.857 482.046 474.663C481.67 474.105 481.645 474.155 481.029 473.732C480.032 472.806 479.091 471.989 478.065 471.104C475.26 469.485 470.889 467.057 467.779 469.686C463.91 471.693 462.814 473.919 461.06 477.705C460.129 490.103 477.744 499.402 487.514 503.446C489.429 504.081 490.962 504.712 492.958 505.108L493.642 505.248C494.536 505.501 495.848 505.921 496.717 506.1C497.299 506.207 497.883 506.308 498.469 506.4C506.002 508.122 513.788 508.446 521.439 507.358C535.486 505.491 551.502 498.265 560.668 487.097C564.909 481.929 564.19 475.107 558.719 471.14C554.678 467.396 550.033 468.465 545.964 471.188C538.013 478.275 533.193 481.585 522.717 484.298Z"/><path fill="#4B68F5" fill-opacity="0.39215687" d="M469.702 476.88C470.656 474.131 469.708 472.374 471.709 471.985L472.003 471.575L472.182 471.631L472.13 471.824L472.24 471.633C471.832 471.228 470.79 471.259 470.272 471.234C472.553 469.137 472.6 471.849 473.227 471.839C473.516 471.676 474.787 469.778 475.372 471.304C475.179 472.012 474.17 472.474 474.225 472.741C474.498 474.263 475.688 479.102 478.023 478.425C480.366 477.745 483.539 482.765 484.252 479.221C484.46 478.188 482.606 476.118 482.046 474.663C492.459 481.857 492.592 481.259 503.39 484.815C507.41 488.397 504.661 486.76 504.626 489.145C505.066 489.847 505.891 488.312 506.509 488.501C506.819 488.596 507.856 488.536 508.176 488.264C508.198 487.763 508.034 487.943 507.635 487.705C509.871 487.655 512.729 488.246 514.688 487.075C516.689 485.878 516.229 486.419 516.983 487.25C520.413 486.453 522.169 487.386 525.16 485.104C525.176 484.99 525.192 484.876 525.207 484.762C524.828 484.401 523.17 484.355 522.717 484.298C533.193 481.585 538.013 478.275 545.964 471.188C544.413 483.325 549.362 473.484 553.353 473.16C552.574 474.609 550.275 477.956 550.78 479.567L551.354 479.937C552.35 479.682 552.929 478.063 553.547 477.142C554.375 478.165 554.601 478.323 555.11 479.514C556.222 479.762 555.653 479.776 556.825 479.14C558.701 482.127 557.348 486.621 554.686 488.77C552.802 489.236 550.082 490.603 548.737 490.703C547.839 490.285 547.027 489.972 546.065 489.735L546.346 489.283C546.691 488.718 546.944 488.256 547.252 487.675C546.747 486.189 547.17 486.438 546.252 485.968C545.2 486.733 534.974 494.256 534.949 494.405C533.571 502.544 532.177 498.683 526.051 499.834C524.475 500.13 518.447 502.977 517.197 503.901C514.509 504.302 496.481 503.411 495.736 504.414C495.719 504.777 496.474 505.699 496.717 506.1C495.848 505.921 494.536 505.501 493.642 505.248C493.223 504.508 492.819 503.862 492.173 503.296C492.176 502.035 495.671 502.702 496.231 502.465C498.504 501.499 494.609 500.771 494.184 500.633C492.683 500.146 489.463 500.859 488.795 502.306C488.815 502.371 488.835 502.435 488.855 502.5C488.529 503.169 488.233 503.13 487.514 503.446C477.744 499.402 460.129 490.103 461.06 477.705C461.959 479.785 462.402 480.553 464.746 479.743C465.821 479.372 467.473 481.15 467.802 481.25L467.865 481.177C468.1 478.599 466.931 480.746 469.234 477.503L469.702 476.88Z"/><path fill="#4B68F5" fill-opacity="0.50980395" d="M558.719 471.14C564.19 475.107 564.909 481.929 560.668 487.097C551.502 498.265 535.486 505.491 521.439 507.358C513.788 508.446 506.002 508.122 498.469 506.4C501.782 506.184 504.397 507.013 507.502 506.615C511.12 505.814 517.299 506.697 520.771 505.561C525.343 504.065 516.79 503.884 517.197 503.901C518.447 502.977 524.475 500.13 526.051 499.834C532.177 498.683 533.571 502.544 534.949 494.405C534.974 494.256 545.2 486.733 546.252 485.968C547.17 486.438 546.747 486.189 547.252 487.675C546.944 488.256 546.691 488.718 546.346 489.283L546.065 489.735C547.027 489.972 547.839 490.285 548.737 490.703C550.082 490.603 552.802 489.236 554.686 488.77C557.348 486.621 558.701 482.127 556.825 479.14C555.653 479.776 556.222 479.762 555.11 479.514C554.601 478.323 554.375 478.165 553.547 477.142C553.65 476.679 553.748 476.075 554.276 475.925C555.917 476.322 556.891 479.126 559.733 475.349C560.112 474.846 559.168 473.135 558.962 472.534L558.719 471.14Z"/><path fill="#4B68F5" fill-opacity="0.26274511" d="M467.779 469.686C470.889 467.057 475.26 469.485 478.065 471.104C472.924 472.785 478.178 479.5 481.029 473.732C481.645 474.155 481.67 474.105 482.046 474.663C482.606 476.118 484.46 478.188 484.252 479.221C483.539 482.765 480.366 477.745 478.023 478.425C475.688 479.102 474.498 474.263 474.225 472.741C474.17 472.474 475.179 472.012 475.372 471.304C474.787 469.778 473.516 471.676 473.227 471.839C472.6 471.849 472.553 469.137 470.272 471.234C470.79 471.259 471.832 471.228 472.24 471.633L472.13 471.824L472.182 471.631L472.003 471.575L471.709 471.985C469.708 472.374 470.656 474.131 469.702 476.88C468.33 474.6 469.286 473.63 467.534 471.49C466.957 470.786 468.816 470.906 467.779 469.686Z"/><path fill="#4B68F5" fill-opacity="0.3764706" d="M545.964 471.188C550.033 468.465 554.678 467.396 558.719 471.14L558.962 472.534C557.769 472.045 557.015 471.552 555.775 471.903C555.768 471.93 555.761 471.958 555.754 471.985C555.644 472.192 555.029 472.297 554.811 472.309C554.643 472.284 554.475 472.259 554.308 472.234C554.034 472.492 554.108 472.465 554.001 472.779C553.932 472.984 553.4 473.138 553.353 473.16C549.362 473.484 544.413 483.325 545.964 471.188Z"/><path fill="#4B68F5" fill-opacity="0.23921569" d="M496.717 506.1C496.474 505.699 495.719 504.777 495.736 504.414C496.481 503.411 514.509 504.302 517.197 503.901C516.79 503.884 525.343 504.065 520.771 505.561C517.299 506.697 511.12 505.814 507.502 506.615C504.397 507.013 501.782 506.184 498.469 506.4C497.883 506.308 497.299 506.207 496.717 506.1Z"/><path fill="#4B68F5" fill-opacity="0.10196079" d="M461.06 477.705C462.814 473.919 463.91 471.693 467.779 469.686C468.816 470.906 466.957 470.786 467.534 471.49C469.286 473.63 468.33 474.6 469.702 476.88L469.234 477.503C466.931 480.746 468.1 478.599 467.865 481.177L467.802 481.25C467.473 481.15 465.821 479.372 464.746 479.743C462.402 480.553 461.959 479.785 461.06 477.705Z"/><path fill="#4B68F5" fill-opacity="0.40392157" d="M522.717 484.298C523.17 484.355 524.828 484.401 525.207 484.762C525.192 484.876 525.176 484.99 525.16 485.104C522.169 487.386 520.413 486.453 516.983 487.25C516.229 486.419 516.689 485.878 514.688 487.075C512.729 488.246 509.871 487.655 507.635 487.705C508.034 487.943 508.198 487.763 508.176 488.264C507.856 488.536 506.819 488.596 506.509 488.501C505.891 488.312 505.066 489.847 504.626 489.145C504.661 486.76 507.41 488.397 503.39 484.815C511.057 485.533 515.162 485.678 522.717 484.298Z"/><path fill="#4B68F5" fill-opacity="0.25098041" d="M553.353 473.16C553.4 473.138 553.932 472.984 554.001 472.779C554.108 472.465 554.034 472.492 554.308 472.234C554.475 472.259 554.643 472.284 554.811 472.309C555.029 472.297 555.644 472.192 555.754 471.985C555.761 471.958 555.768 471.93 555.775 471.903C557.015 471.552 557.769 472.045 558.962 472.534C559.168 473.135 560.112 474.846 559.733 475.349C556.891 479.126 555.917 476.322 554.276 475.925C553.748 476.075 553.65 476.679 553.547 477.142C552.929 478.063 552.35 479.682 551.354 479.937L550.78 479.567C550.275 477.956 552.574 474.609 553.353 473.16Z"/><path fill="#4B68F5" fill-opacity="0.40784314" d="M487.514 503.446C488.233 503.13 488.529 503.169 488.855 502.5C488.835 502.435 488.815 502.371 488.795 502.306C489.463 500.859 492.683 500.146 494.184 500.633C494.609 500.771 498.504 501.499 496.231 502.465C495.671 502.702 492.176 502.035 492.173 503.296C492.819 503.862 493.223 504.508 493.642 505.248L492.958 505.108C490.962 504.712 489.429 504.081 487.514 503.446Z"/><path fill="#4B68F5" fill-opacity="0.1254902" d="M481.029 473.732C478.178 479.5 472.924 472.785 478.065 471.104C479.091 471.989 480.032 472.806 481.029 473.732Z"/></svg>