<?xml version="1.0" encoding="utf-8" ?><svg xmlns="http://www.w3.org/2000/svg" xmlns:xlink="http://www.w3.org/1999/xlink" width="1024" height="1024" viewBox="0 0 1024 1024"><path fill="#3144E7" d="M620.106 691.621C611.135 662.379 611.335 636.378 625.392 608.701C650.689 558.893 713.929 539.132 762.902 566.285C809.41 592.071 826.316 642.943 808.594 692.116C816.89 694.282 823.673 695.348 832 698.128C853.678 705.357 871.966 720.261 883.422 740.034C914.387 792.779 885.97 862.602 826.034 876.947C813.75 877.715 792.589 876.957 779.575 876.913L696.879 876.987L634.12 876.981C625.946 876.973 608.538 877.409 601.239 876.346C579.93 872.022 560.285 856.277 548.464 838.377C535.059 817.878 530.23 792.939 535.015 768.917C540.246 743.82 555.233 721.828 576.679 707.78C591.648 698.094 603.151 695.224 620.106 691.621Z"/><path fill="white" d="M601.239 876.346C599.643 874.066 598.96 872.809 598.976 869.983C599.072 853.915 598.099 836.194 600.854 820.409C606.164 789.63 623.572 762.256 649.194 744.392C673.643 727.199 703.946 720.481 733.371 725.733C794.921 737.193 832.4 790.931 829.121 852.162C828.743 859.208 830.936 871.72 826.034 876.947C813.75 877.715 792.589 876.957 779.575 876.913L696.879 876.987L634.12 876.981C625.946 876.973 608.538 877.409 601.239 876.346Z"/><path fill="white" d="M710.642 594.207C738.951 591.29 762.44 616.404 766.218 643.2C768.525 659.169 764.304 675.394 754.507 688.214C745.096 700.613 733.403 706.776 718.119 708.853C705.093 709.983 692.631 705.575 682.489 697.476C644.463 667.11 660.115 598.674 710.642 594.207Z"/><path fill="#3144E7" d="M216.96 692.239C207.552 662.032 206.132 637.762 221.42 608.498C234.012 584.446 255.67 566.403 281.601 558.364C306.841 550.573 334.147 553.166 357.469 565.569C381.666 578.503 399.734 600.518 407.698 626.773C414.173 648.518 412.443 671.031 404.602 692.166C434.859 697.638 457.303 708.21 475.454 733.869C505.024 775.67 493.63 834.198 452.249 863.5C444.226 869.182 432.593 874.681 423.014 876.51C415.917 877.408 395.069 876.934 386.58 876.974L301.557 876.913L232.515 876.992C224.342 877.009 204.375 877.533 197.441 876.631C149.267 865.595 120.123 814.48 131.428 766.998C137.314 741.696 153.142 719.83 175.341 706.336C184.426 700.756 194.469 697.221 204.807 694.77C208.366 693.927 213.717 693.204 216.96 692.239Z"/><path fill="white" d="M197.441 876.631C194.372 871.105 195.363 862.484 195.386 856.114C195.421 846.455 195.254 836.247 196.327 826.662C196.971 820.882 198.097 815.167 199.694 809.575C208.704 777.7 227.58 753.67 256.537 737.678C282.979 723.335 314.048 720.128 342.862 728.768C373.054 737.661 397.259 758.48 412.113 786.003C424.326 808.63 426.218 830.579 425.651 855.705C425.501 862.322 427.125 871.016 423.014 876.51C415.917 877.408 395.069 876.934 386.58 876.974L301.557 876.913L232.515 876.992C224.342 877.009 204.375 877.533 197.441 876.631Z"/><path fill="white" d="M307.915 594.21C314.846 593.553 323.963 595.398 330.256 598.24C381.239 621.264 371.446 703.62 313.624 708.764C313.39 708.788 313.156 708.812 312.922 708.837C262.106 709.975 242.611 647.747 271.92 612.977C280.924 602.157 293.889 595.397 307.915 594.21Z"/><path fill="#4B68F5" d="M469.938 199.875C459.443 181.937 454.679 166.902 460.289 145.733C464.178 130.841 473.804 118.094 487.064 110.278C530.041 85.2923 574.447 127.432 566.571 171.964C564.537 183.465 562.125 189.818 555.813 199.65C556.987 201.126 556.805 201.424 559.181 201.523C565.735 201.797 572.451 201.713 579.008 201.69L609.986 201.567C614.129 201.556 618.338 201.505 622.478 201.617C673.064 202.996 714.247 249.96 711.862 300.106C710.61 326.781 698.688 351.834 678.776 369.629C663.168 383.609 646.038 389.955 625.712 393.237C618.566 393.926 608.507 393.623 601.111 393.597L562.095 393.539C554.561 393.537 547.026 393.587 539.492 393.69C537.11 393.728 529.087 394.065 527.076 393.805C522.889 393.207 503.097 393.673 497.083 393.561C474.466 393.407 451.849 393.411 429.233 393.572C421.568 393.567 407.819 394.153 400.574 393.242C393.529 392.466 383.277 390.152 376.749 387.696C352.451 378.819 332.768 360.506 322.164 336.91C311.423 313.483 310.55 286.72 319.743 262.643C332.015 230.425 360.249 207.12 394.645 202.39C401.056 201.509 410.213 201.741 416.858 201.716L448.524 201.53C454.254 201.478 465.176 202.379 469.938 199.875Z"/><path fill="white" d="M396.53 388.639C396.382 374.512 395.869 353.357 397.392 339.852C400.16 315.318 412.589 289.376 429.87 271.792C451.577 249.544 481.344 236.998 512.428 236.998C543.397 237.102 573.036 249.599 594.729 271.701C625.25 302.532 630.133 339.315 628.629 380.141C628.42 385.819 628.921 388.249 625.712 393.237C618.566 393.926 608.507 393.623 601.111 393.597L562.095 393.539C554.561 393.537 547.026 393.587 539.492 393.69C537.11 393.728 529.087 394.065 527.076 393.805C522.889 393.207 503.097 393.673 497.083 393.561C474.466 393.407 451.849 393.411 429.233 393.572C421.568 393.567 407.819 394.153 400.574 393.242C399.164 391.737 397.732 390.311 396.53 388.639Z"/><path fill="white" d="M469.938 199.875C459.443 181.937 454.679 166.902 460.289 145.733C464.178 130.841 473.804 118.094 487.064 110.278C530.041 85.2923 574.447 127.432 566.571 171.964C564.537 183.465 562.125 189.818 555.813 199.65C555.066 201.01 548.636 207.392 547.267 208.641C537.1 217.994 523.578 222.827 509.787 222.039C491.895 221.031 481.182 212.448 469.938 199.875Z"/><path fill="#1C2F9A" d="M497.083 393.561C503.097 393.673 522.889 393.207 527.076 393.805C526.84 395.4 526.606 397.869 526.632 399.566C526.988 414.911 525.612 431.102 527.449 446.305C529.758 465.402 551.746 462.074 565.417 461.99L643.987 461.965C659.028 461.966 679.244 460.984 693.757 463.596C700.98 464.896 709.716 471.019 715.043 476.156C731.941 492.453 728.95 515.478 728.895 537.506L700.402 537.475C699.71 525.378 703.243 505.791 694.98 496.524C688.692 489.471 676.335 490.483 667.522 490.502C628.966 490.588 590.337 490.787 551.775 490.795C533.717 490.789 525.639 489.172 512.824 476.04C496.667 493.649 483.953 490.491 462.055 490.623C435.945 490.877 409.833 490.912 383.722 490.73C376.419 490.697 365.993 491.179 358.958 490.73C318.871 488.176 325.673 506.937 324.951 537.435C315.844 537.646 306.076 537.465 296.918 537.463C296.88 536.643 296.857 535.822 296.849 535C296.672 513.366 293.836 492.505 310.388 476.106C326.484 460.159 341.21 461.977 362.001 461.993C399.881 462.022 437.641 461.903 475.51 462.058C486.129 462.109 496.566 458.278 497.732 446.835C498.303 441.224 498.795 394.988 497.083 393.561Z"/></svg>