<?xml version="1.0" encoding="utf-8" ?><svg xmlns="http://www.w3.org/2000/svg" xmlns:xlink="http://www.w3.org/1999/xlink" width="1024" height="1024" viewBox="0 0 1024 1024"><path fill="#4B68F5" d="M313.323 140.711C319.45 139.938 329.206 140.417 335.513 140.417L375.546 140.435L500.25 140.454L642.873 140.48L683.719 140.405C701.297 140.362 719.028 139.968 736.371 143.488C765.669 149.433 793.991 162.012 817.226 180.803C854.653 211.043 878.439 254.989 883.291 302.86C884.241 312.103 884.036 322.104 884.04 331.458L884.079 367.261L884.286 487.34L884.358 639.33L884.373 685.528C884.344 701.455 884.723 717.368 881.728 732.963C875.578 764.99 862.716 792.669 841.863 817.671C807.724 858.599 765.104 878.204 713.125 883.469L712.662 883.506C703.672 884.175 693.366 883.971 684.229 883.987L639.576 883.991L504.93 883.91L380.068 883.842C353.008 883.878 313.558 885.532 287.921 880.487C256.275 874.45 226.806 860.099 202.54 838.907C166.457 808.169 144.332 764.15 141.192 716.853C139.418 691.728 140.635 656.788 140.672 630.799L140.901 472.846L140.5 363.4C140.442 340.913 139.221 310.492 143.466 288.893C149.665 257.453 164.027 228.196 185.111 204.062C218.518 165.639 262.678 144.196 313.323 140.711Z"/><path fill="white" d="M571.535 632.995C548.67 647.617 524.366 660.037 497.782 666.364C438.286 680.845 375.468 670.877 323.377 638.689C272.609 607.776 236.279 557.877 222.454 500.067C208.345 440.846 218.66 378.438 251.074 326.906C283.455 275.727 334.806 239.474 393.873 226.095C451.528 212.86 512.079 222.999 562.279 254.292C601.585 278.53 632.561 314.184 651.069 356.492C678.161 418.096 675.887 486.615 646.376 546.702C642.017 555.576 636.432 564.266 631.149 572.619C641.981 584.293 654.253 596.145 665.284 607.73C670.43 613.135 679.406 621.125 683.75 626.617L641.767 668.992C636.629 674.121 629.634 681.773 624.526 686.339C622.276 684.797 610.702 672.779 607.955 669.959C595.951 657.64 583.348 645.45 571.535 632.995Z"/><path fill="#1C2F9A" d="M322.914 557.378C293.339 525.337 278.015 482.677 280.442 439.14C284.9 349.14 361.351 279.485 451.536 284.209C495.251 286.499 536.263 306.074 565.537 338.622C593.874 370.688 608.35 412.676 605.795 455.393C603.867 493.412 588.656 529.548 562.814 557.5L561.744 558.604C508.508 613.305 431.044 625.293 363.965 589.327C348.036 580.786 335.668 569.88 322.914 557.378Z"/><path fill="#4B68F5" d="M322.914 557.378C325.401 550.248 328.395 540.334 331.315 533.754C343.381 506.801 364.697 485.057 391.404 472.457C419.192 459.133 454.065 457.008 483.129 467.246C514.073 478.006 539.406 500.732 553.45 530.33C556.199 536.087 561.892 551.005 562.814 557.5L561.744 558.604C508.508 613.305 431.044 625.293 363.965 589.327C348.036 580.786 335.668 569.88 322.914 557.378Z"/><path fill="#4B68F5" d="M436.473 330.133C468.975 325.99 498.672 349.006 502.768 381.515C506.863 414.023 483.802 443.686 451.288 447.733C418.842 451.771 389.255 428.77 385.168 396.329C381.081 363.889 404.039 334.268 436.473 330.133Z"/><path fill="#1C2F9A" d="M683.75 626.617C687.128 628.107 717.928 660.535 722.942 665.584L756.23 698.686C767.428 709.996 779.273 720.955 790.063 732.621C802.055 745.588 804.461 764.322 797.412 780.216C793 790.019 784.883 797.674 774.839 801.505C764.723 805.306 750.957 805.374 741.285 800.509C730.26 794.964 720.266 782.285 711.388 773.481L651.247 713.566L633.397 695.426C631.322 693.298 626.587 688.087 624.526 686.339C629.634 681.773 636.629 674.121 641.767 668.992L683.75 626.617Z"/></svg>