<?xml version="1.0" encoding="utf-8" ?><svg xmlns="http://www.w3.org/2000/svg" xmlns:xlink="http://www.w3.org/1999/xlink" width="1024" height="1024" viewBox="0 0 1024 1024"><path fill="#4B68F5" d="M133.96 280.4C135.721 239.031 149.308 203.091 180.411 174.55C201.254 155.302 227.255 142.545 255.232 137.838C274.886 134.367 307.682 135.525 328.611 135.555L438.176 135.527L653.425 135.846L717.602 135.835C745.32 135.819 764.299 134.484 791.281 143.77C843.954 161.899 882.092 207.393 889.261 262.88C890.382 271.878 890.105 281.839 890.099 291.017C890.134 292.819 890.381 302.365 890.168 303.421C889.481 340.393 890.025 378.759 890.023 415.895L890.021 624.023L890.051 711.24C890.059 748.486 892.102 767.822 877.599 803.763C876.239 806.045 871.545 815.455 870.843 816.428C859.832 837.442 837.587 858.334 817.343 870.019C799.019 880.604 778.667 887.199 757.618 889.373C748.889 890.251 739.236 890.057 730.404 890.061L693.766 890.049L575.994 890.037L378.649 890.032L315.564 890.027C289.63 890.022 266.398 891.625 241.149 884.686C203.911 874.567 172.241 850.024 153.15 816.489C151.282 814.431 147.813 806.78 146.474 803.927C131.633 771.327 133.979 739.912 133.901 705.25L133.893 612.828L133.925 333.693C133.483 330.056 133.735 320.705 133.63 316.517C133.329 304.476 132.929 292.409 133.96 280.4Z"/><path fill="white" d="M133.96 280.4C135.721 239.031 149.308 203.091 180.411 174.55C201.254 155.302 227.255 142.545 255.232 137.838C274.886 134.367 307.682 135.525 328.611 135.555L438.176 135.527L653.425 135.846L717.602 135.835C745.32 135.819 764.299 134.484 791.281 143.77C843.954 161.899 882.092 207.393 889.261 262.88C890.382 271.878 890.105 281.839 890.099 291.017C840.305 291.734 789.016 290.884 739.039 291.035L325.201 291.173C262.188 291.045 196.918 290.084 134.061 290.996C134.133 287.464 134.1 283.93 133.96 280.4Z"/><path fill="#1C2F9A" d="M253.967 226.099C255.542 219.941 261.655 190.68 266.031 188.137C268.575 186.658 274.515 186.927 277.191 187.949C278.641 188.502 280.011 189.603 280.514 191.112C281.863 195.161 281.606 231.858 281.276 237.865C281.195 239.342 281.141 240.767 280.416 242.091C279.617 243.55 278.122 244.755 276.451 244.973C274.723 245.198 272.881 244.589 271.657 243.344C270.867 242.54 270.238 241.461 269.737 240.461C268.203 231.666 270.415 217.046 269.506 207.751C269.372 206.387 270.088 204.939 268.664 204.554C266.923 212.294 262.075 241.1 256.399 244.631C255.205 245.374 254.026 245.538 252.651 245.233C250.413 244.736 248.656 242.287 247.678 240.388C242.639 230.611 241.694 212.875 237.431 201.794L237.461 226.288C237.466 230.6 237.819 235.234 237.234 239.489C237.033 240.956 236.649 242.508 235.554 243.573C234.436 244.66 232.016 245.431 230.486 245.073C228.776 244.673 227.618 243.092 226.969 241.563C226.247 239.862 226.003 237.979 225.879 236.15C225.467 230.108 225.479 193.166 226.843 190.424C227.58 188.942 228.719 188.287 230.257 187.868C233.141 187.083 239.587 186.869 242.285 188.226C243.608 188.892 244.31 190.12 244.868 191.424C246.776 195.876 247.487 201.175 248.53 205.9C250.027 212.683 251.716 219.524 253.967 226.099Z"/><path fill="#BCB8D9" d="M268.664 204.554C268.723 204.128 268.997 201.58 269.711 201.413C270.227 201.759 270.062 237.047 269.737 240.461C268.203 231.666 270.415 217.046 269.506 207.751C269.372 206.387 270.088 204.939 268.664 204.554Z"/><path fill="#1C2F9A" d="M419.418 225.385C422.256 213.885 424.633 201.961 428.02 190.656C429.293 186.406 440.409 185.467 442.272 191.201C443.64 195.412 444.458 199.172 445.442 203.484C447.072 210.829 448.766 218.159 450.523 225.475C451.097 220.255 456.302 190.188 459.393 188.215C460.878 187.268 463.155 187.011 464.836 187.516C466.066 187.885 466.871 188.694 467.465 189.8C469.902 194.34 465.168 207.119 463.894 212.296C462.219 218.522 458.809 240.891 454.292 243.469C440.166 251.529 438.921 212.613 434.98 204.065C432.737 211.047 427.458 240.238 423.226 243.47C421.669 244.659 419.417 244.92 417.526 244.623C415.989 244.382 414.419 243.475 413.61 242.109C412.348 239.977 401.583 197.793 400.873 192.842C400.768 192.103 400.857 191.349 401.131 190.655C401.932 188.589 403.716 187.863 405.581 186.992C407.986 187.128 411.25 187.774 411.996 190.403C415.186 201.647 417.118 213.911 419.418 225.385Z"/><path fill="#1C2F9A" d="M682.727 186.604C689.605 186.038 695.179 186.273 701.217 190.059C706.379 193.296 711.541 204.739 702.601 206.605C698.141 207.537 696.103 199.039 692.938 197.106C688.76 193.635 681.837 195.019 678.513 199.149C673.823 204.724 685.646 207.881 689.341 208.789C697.494 210.793 708.362 214.117 709.618 224.054C711.281 237.212 701.712 243.734 689.998 245.425C685.299 245.463 681.314 245.077 675.948 243.178C669.921 241.046 659.065 227.248 670.429 223.563C673.941 222.424 677.388 231.65 680.24 233.617C683.011 235.759 684.638 236.215 688.205 235.994C695.292 235.554 702.832 227.303 694.835 222.086C689.165 218.386 678.819 218.854 672.98 214.545C669.776 212.181 667.238 209.624 666.591 205.383C664.783 193.95 672.61 188.576 682.727 186.604Z"/><path fill="#1C2F9A" d="M769.74 186.667C779.787 185.958 790.081 188.509 792.839 199.367C793.652 202.569 791.838 206.987 788.379 207.232C782.684 207.633 782.026 198.97 778.347 196.437C773.715 193.338 762.369 195.943 762.776 202.564C763.783 206.364 772.761 208.414 775.89 208.924C791.097 211.401 800.813 222.077 792.478 237.096C789.647 242.197 782.146 244.367 776.449 245.497C769.715 245.57 763.838 245.073 758.225 240.998C753.886 237.849 748.346 230.89 752.721 225.603C754.046 224 754.523 223.721 756.483 223.452C761.24 225.186 762.101 230.832 766.512 234.217C772.228 239.422 786.028 234.665 783.379 226.075C780.89 218.004 764.469 219.766 757.672 214.262C750.703 208.62 750.52 201.005 755.006 193.809C758.024 188.97 764.558 187.317 769.74 186.667Z"/><path fill="#1C2F9A" d="M593.376 187.549C597.655 187.411 625.636 186.551 627.526 188.692C637.914 200.459 606.205 197.131 601.49 197.069L601.526 209.377C607.904 209.46 630.553 206.036 622.671 218.301C618.333 219.41 606.287 218.973 601.426 218.931C601.35 223.935 603.047 239.703 599.727 242.978C598.349 244.337 596.703 245.052 594.764 244.832C593.194 244.655 591.525 243.537 590.644 242.252C588.882 239.685 588.547 195.134 589.67 191.08C590.229 189.059 591.667 188.456 593.376 187.549Z"/><path fill="#1C2F9A" d="M513.587 187.749C517.862 187.749 549.147 186.647 550.748 188.747C559.13 199.745 539.827 197.678 534.637 197.629L534.859 235.625C534.927 237.924 535.034 240.317 533.396 242.135C532.012 243.67 529.923 244.941 527.803 244.916C526.531 244.9 525.463 244.282 524.633 243.343C520.879 239.098 522.569 205.182 522.752 197.545C519.615 197.518 505.075 199.208 504.99 193.189C504.922 188.294 509.6 187.765 513.587 187.749Z"/><path fill="#1C2F9A" d="M323.478 187.578C333.779 187.664 344.025 187.94 354.294 187.637C358.95 188.017 366.166 185.91 366.71 192.551C367.283 199.54 354.477 197.622 349.259 197.543L349.008 230.827C349.08 234.145 349.575 239.469 347.977 242.395C345.663 246.632 338.157 245.168 337.467 240.303C336.761 235.323 337.028 230.106 337.046 225.032L337.122 197.526C332.631 197.526 322.607 199.077 320.09 195.066C317.659 191.192 320.45 189.054 323.478 187.578Z"/><path fill="#1C2F9A" d="M153.15 816.489C156.565 815.301 194.744 815.993 200.381 815.996L285.106 815.826L745.186 815.878L838.634 815.634C843.148 815.624 867.612 815.097 870.36 815.951L870.843 816.428C859.832 837.442 837.587 858.334 817.343 870.019C799.019 880.604 778.667 887.199 757.618 889.373C748.889 890.251 739.236 890.057 730.404 890.061L693.766 890.049L575.994 890.037L378.649 890.032L315.564 890.027C289.63 890.022 266.398 891.625 241.149 884.686C203.911 874.567 172.241 850.024 153.15 816.489Z"/><path fill="#181B5E" d="M133.96 280.4C134.1 283.93 134.133 287.464 134.061 290.996C196.918 290.084 262.188 291.045 325.201 291.173L739.039 291.035C789.016 290.884 840.305 291.734 890.099 291.017C890.134 292.819 890.381 302.365 890.168 303.421C887.6 302.875 877.163 303.167 873.715 303.186L841.153 303.281L696.981 303.306L321.314 303.33L208.746 303.364C184.009 303.296 158.733 302.838 134.029 303.185C134.068 312.018 134.523 325.159 133.925 333.693C133.483 330.056 133.735 320.705 133.63 316.517C133.329 304.476 132.929 292.409 133.96 280.4Z"/><path fill="#181B5E" d="M146.474 803.927C157.294 803.275 171.413 803.636 182.388 803.666L246.585 803.874L446.926 803.893L733.072 803.82L823.197 803.837C840.65 803.794 860.308 803.288 877.599 803.763C876.239 806.045 871.545 815.455 870.843 816.428L870.36 815.951C867.612 815.097 843.148 815.624 838.634 815.634L745.186 815.878L285.106 815.826L200.381 815.996C194.744 815.993 156.565 815.301 153.15 816.489C151.282 814.431 147.813 806.78 146.474 803.927Z"/><path fill="#1C2F9A" d="M616.682 447.181C622.14 446.364 629.999 446.987 635.71 446.889C650.171 446.642 662.408 446.346 674.509 455.472C683.106 461.868 688.787 471.438 690.284 482.048C691.032 487.61 690.688 492.617 690.692 498.128C690.701 510.522 690.641 519.782 682.743 529.989C676.344 538.258 665.808 544.203 655.431 545.497C650.116 546.36 643.184 546.194 637.716 546.159C622.941 546.063 608.833 547.248 596.416 537.782C587.735 531.158 582.099 521.306 580.79 510.465C579.956 503.89 580.592 496.881 580.404 490.271C579.771 467.919 593.644 449.909 616.682 447.181Z"/><path fill="white" d="M620.839 458.708C629.815 458.364 648.606 457.96 656.811 459.827C674.369 463.823 680.269 481.063 678.901 497.351C678.114 506.727 679.825 514.902 672.34 523.312C666.288 530.647 659.604 533.348 650.625 534.307C646.645 534.613 640.118 534.481 635.989 534.502C624.418 534.476 613.272 535.869 603.699 527.979C592.642 518.866 592.054 508.533 592.343 495.193C592.559 485.219 592.211 477.198 599.16 468.993C605.196 461.864 611.996 459.513 620.839 458.708Z"/><path fill="#F6782C" d="M631.022 474.895C643.145 472.347 655.059 480.036 657.731 492.133C660.402 504.23 652.835 516.221 640.766 519.016C632.849 520.85 624.557 518.29 619.051 512.312C613.545 506.335 611.673 497.861 614.15 490.121C616.626 482.38 623.069 476.566 631.022 474.895Z"/><path fill="#1C2F9A" d="M264.487 446.744L268.122 446.704C284.606 446.558 296.137 446.565 308.994 459.038C318.367 468.132 320.748 479.598 320.671 492.081C320.569 508.852 322.148 520.78 309.073 533.791C296.315 546.487 284.508 546.027 267.924 545.993C251.513 546.136 235.446 547.354 222.872 534.96C212.395 524.634 210.706 513.5 210.518 499.546C210.306 483.854 210.107 471.019 222.015 459.069C234.94 446.099 247.762 446.832 264.487 446.744Z"/><path fill="white" d="M250.963 458.708C255.134 458.287 261.358 458.821 265.019 458.509C293.103 456.114 310.926 466.211 308.6 497.392C307.881 507.029 309.519 514.704 301.535 523.715C295.477 530.553 289.865 533.462 280.55 534.182C275.98 534.446 268.783 534.088 264.922 534.418C237.727 536.737 220.606 525.618 222.796 496.049C223.516 486.335 221.398 477.926 229.658 468.776C235.816 461.955 241.916 459.545 250.963 458.708Z"/><path fill="#1C2F9A" d="M387.218 558.243L394.302 558.164C410.278 558.056 420.631 558.685 432.692 570.524C445.833 583.424 444.204 596.746 444.557 613.372C444.958 632.262 435.889 647.516 418.196 654.82C409.911 658.247 401.57 657.654 392.75 657.608C375.805 657.691 360.338 659.248 347.18 646.496C337.967 637.567 334.325 627.294 334.271 614.76C334.2 598.107 333.016 583.338 345.778 570.456C358.365 557.751 370.912 558.32 387.218 558.243Z"/><path fill="white" d="M375.817 570.243C397.595 569.981 427.855 565.09 431.826 595.704C434.843 618.962 432.212 642.755 404.037 645.92C380.019 646.103 349.863 650.862 346.558 617.526C344.316 594.907 347.908 571.437 375.817 570.243Z"/><path fill="#1C2F9A" d="M628.966 558.25L636.596 558.185C653.744 558.074 665.644 557.817 678.962 570.84C689.022 580.677 690.426 591.915 690.485 605.301C690.554 620.741 690.686 634.064 678.762 645.699C667.74 656.453 656.998 657.536 642.525 657.516C624.073 657.598 606.475 659.792 592.116 645.896C584.034 638.075 580.579 627.616 580.535 616.595C580.464 599.003 578.743 583.833 592.215 570.345C603.786 558.759 613.844 558.436 628.966 558.25Z"/><path fill="white" d="M620.796 570.213C627.507 569.784 650.704 569.694 656.328 571.113C660.614 572.168 664.604 574.183 667.997 577.007C680.453 587.334 678.5 601.075 678.347 615.616C678.171 632.303 666.888 644.442 650.125 645.785C646.532 645.977 642.626 646.092 639.024 646.003C626.858 645.71 613.913 647.954 603.692 639.689C593.001 631.043 592.062 620.252 592.431 607.458C592.718 597.508 592.38 588.326 599.442 580.135C605.193 573.464 612.3 570.839 620.796 570.213Z"/><path fill="#1C2F9A" d="M380.568 446.726C399.343 446.463 417.815 444.443 432.168 458.802C440.827 467.45 444.599 477.979 444.526 490.133C444.529 503.118 445.352 515.757 437.999 527.187C428.64 541.734 415.853 545.937 399.439 545.989C381.237 546.039 360.661 548.164 346.891 534.872C338.579 526.848 334.521 516.685 334.37 505.326C334.149 488.61 332.231 472.76 344.911 459.851C355.875 448.689 366.044 447.122 380.568 446.726Z"/><path fill="white" d="M374.107 458.696C381.686 458.451 404.54 458.175 410.489 459.676C414.055 460.547 417.404 462.144 420.325 464.367C432.239 473.345 431.591 482.168 432.392 495.562C433.482 513.801 427.456 531.479 406.124 533.993C399.064 534.666 374.79 534.869 368.671 533.349C364.729 532.401 361.028 530.644 357.803 528.189C345.547 518.895 347.077 509.601 346.36 496.307C345.306 476.763 352.143 461.054 374.107 458.696Z"/><path fill="#1C2F9A" d="M247.72 558.681C251.598 558.209 260.317 558.322 264.562 558.273C279.2 558.16 292.18 556.872 304.308 566.521C321.558 580.245 320.581 594.917 320.566 614.887C320.548 638.358 306.499 654.618 283.303 657.316C279.345 657.802 270.949 657.617 266.726 657.635C252.033 657.702 238.104 658.295 226.018 648.49C212.127 637.22 210.019 624.267 210.43 607.397C210.749 594.245 211.025 583.895 219.84 573.05C227.415 563.731 236.099 559.987 247.72 558.681Z"/><path fill="white" d="M252.611 570.237C275.23 569.659 304.871 565.554 308.122 596.313C310.584 619.605 308.665 642.834 279.949 645.947C257.038 646.091 226.129 650.746 223.024 618.191C220.792 594.798 223.702 571.644 252.611 570.237Z"/><path fill="#1C2F9A" d="M371.369 670.206C374.354 669.77 383.284 669.933 386.74 669.976C400.226 670.217 414.458 668.175 426.073 676.567C441.1 687.426 444.941 701.233 444.491 718.909C444.169 731.523 444.98 740.029 437.151 751.1C429.68 761.666 421.043 766.159 408.609 768.442C401.351 768.809 394.085 768.966 386.818 768.912C372.589 768.907 360.913 769.435 349.264 759.946C340.918 753.08 335.645 743.177 334.608 732.42C333.893 725.217 334.043 716.28 334.316 709.003C335.108 687.897 350.318 672.16 371.369 670.206Z"/><path fill="white" d="M373.801 681.7C378.851 681.479 385.019 681.59 390.119 681.615C399.378 681.835 410.897 680.514 418.983 686.117C430.156 693.86 432.73 705.174 432.226 717.989C431.837 727.876 432.97 735.804 426.785 744.455C421.137 752.356 415.332 755.236 406.126 757.035C396.782 757.513 387.301 756.963 377.871 757.216C362.658 758.155 348.016 746.879 346.645 731.499C344.626 708.86 345.733 684.909 373.801 681.7Z"/><path fill="#1C2F9A" d="M739.05 447.186C742.929 446.697 751.316 446.859 755.562 446.803C770.43 446.588 783.401 445.743 795.926 455.104C810.866 466.269 813.037 478.997 812.631 496.562C812.334 509.429 813.116 518.711 804.671 529.695C797.074 539.576 788.225 544.178 776.116 545.9C770.984 546.333 763.609 546.16 758.4 546.154C743.719 546.102 730.157 546.793 718.064 537.141C702.779 525.237 703.628 512.43 702.714 495.415C701.423 471.374 712.522 450.201 739.05 447.186Z"/><path fill="white" d="M742.266 458.682C748.036 458.6 753.807 458.578 759.578 458.616C770.099 458.637 779.032 457.805 788.116 464.078C794.407 468.479 798.704 475.189 800.069 482.745C800.986 488.002 800.955 507.279 799.648 512.322C798.732 515.881 797.176 519.243 795.056 522.244C789.793 529.701 783.097 532.625 774.514 534.081C767.348 534.683 743.135 534.869 737.03 533.48C733.214 532.633 729.623 530.979 726.499 528.628C714.43 519.536 715.152 509.687 714.826 496.212C714.356 476.804 719.757 461.306 742.266 458.682Z"/><path fill="#1C2F9A" d="M743.384 558.236C751.233 558.033 759.225 558.383 767.078 558.304C778.599 558.187 789.253 560.651 798.29 568.252C806.438 575.078 811.517 584.881 812.394 595.475C812.736 599.884 812.504 604.556 812.617 608.882C812.962 621.977 811.636 633.532 802.606 643.796C793.927 653.662 785.682 656.505 773.011 657.466C739.325 657.633 708.023 660.72 702.924 617.737C699.368 587.759 709.185 559.797 743.384 558.236Z"/><path fill="white" d="M742.608 570.203C747.097 569.921 752.935 570.022 757.495 570.017C768.677 570.101 779.945 568.973 789.283 576.39C800.164 585.032 800.973 594.868 800.617 607.614C800.326 618.044 801.245 626.257 794.031 635.104C788.127 642.345 781.736 644.85 772.783 645.825C765.553 646.217 742.02 646.461 736.025 644.817C731.901 643.657 728.083 641.604 724.84 638.805C719.213 633.949 715.037 625.41 715.046 618.09C715.062 605.154 712.678 590.424 722.116 580.122C728.026 573.671 734.198 570.84 742.608 570.203Z"/><path fill="#1C2F9A" d="M519.48 558.238C533.47 558.041 544.487 559.329 555.118 569.797C568.221 582.7 567.941 595.494 567.931 612.523C567.922 626.484 565.459 636.091 555.343 646.534C542.344 659.954 523.831 657.572 506.375 657.475C502.419 657.491 498.575 657.468 494.648 657.091C473.437 655.053 458.083 637.845 457.993 616.529C457.925 599.263 456.647 584.057 469.539 570.694C483.559 556.161 500.944 558.607 519.48 558.238Z"/><path fill="white" d="M498.107 570.2C502.131 569.928 508.596 569.992 512.796 570C524.003 570.023 534.558 568.669 543.981 575.884C550.353 580.752 554.484 587.991 555.435 595.953C555.856 599.315 555.667 604.223 555.683 607.649C555.731 617.968 555.961 627.097 548.881 635.51C543.354 642.076 536.879 644.782 528.608 645.617C507.247 646.298 473.666 651.104 470.527 620.239C468.254 597.895 469.767 572.675 498.107 570.2Z"/><path fill="#1C2F9A" d="M743.456 670.22C749.087 669.983 755.066 670.188 760.646 670.021C775.404 669.577 787.914 670.1 799.423 680.603C807.985 688.415 812.464 699.406 812.692 710.973C813.025 727.91 814.247 742.909 801.624 756.204C793.53 764.729 784.293 768.285 772.75 768.612C766.463 768.851 760.172 768.96 753.881 768.94C738.34 768.999 727.822 768.653 715.343 757.862C707.159 750.597 703.208 740.495 702.894 729.854C702.272 708.75 701.426 687.608 722.267 675.585C729.672 671.312 734.941 670.607 743.456 670.22Z"/><path fill="white" d="M743.805 681.713C747.839 681.423 753.96 681.579 758.198 681.554C769.125 681.549 780.007 680.579 789.201 687.656C800.274 696.178 800.667 706.729 800.583 719.394C800.516 729.613 800.714 737.77 794.026 746.315C788.289 753.644 782.014 755.861 773.26 756.946C765.07 757.041 742.736 757.856 736.051 756.094C732.104 755.081 728.429 753.21 725.287 750.615C713.825 741.187 715.409 731.84 714.856 719.132C713.966 698.695 721.087 683.337 743.805 681.713Z"/><path fill="#1C2F9A" d="M247.632 670.192C251.814 669.696 260.07 669.835 264.487 669.802C278.96 669.702 291.664 668.767 303.969 677.764C318.624 688.479 320.661 702.02 320.541 719.057C320.451 731.812 320.514 741.631 312.591 752.5C305.417 762.34 296.366 766.594 284.625 768.462C253.379 769.235 216.802 773.838 211.132 732.447C207.259 704.176 214.254 673.67 247.632 670.192Z"/><path fill="white" d="M253.242 681.716C274.786 681.583 305.131 676.864 308.268 707.83C310.553 730.392 308.392 755.151 279.625 757.022L261.909 757.133C250.685 757.236 242.34 758.043 233.003 750.432C226.457 745.007 223.356 737.266 222.74 729.058C220.923 704.879 223.493 683.625 253.242 681.716Z"/><path fill="#1C2F9A" d="M496.275 670.202C502.597 669.855 508.799 669.982 515.031 669.849C529.139 669.473 541.261 669.569 552.561 679.079C566.79 691.054 568.023 702.55 567.666 719.96C567.391 733.41 567.525 743.401 558.093 754.412C550.486 763.292 541.049 767.881 529.622 768.814C523.946 769.153 517.018 769.044 511.237 769.038C496.937 769.003 484.322 769.462 472.764 759.746C458.878 748.074 457.855 734.702 457.985 717.786C458.086 704.66 458.289 694.963 467.361 684.426C475.629 674.822 483.908 671.299 496.275 670.202Z"/><path fill="white" d="M502.412 681.741C524.884 681.774 552.245 677.574 555.754 709.009C558.434 733.013 554.273 754.913 525.625 756.974L508.453 757.241C496.698 757.381 488.472 757.817 479.035 749.06C473.596 744.013 470.128 735.687 470.327 728.291C470.692 714.717 467.892 701.1 478.505 690.462C486.095 682.856 492.539 681.955 502.412 681.741Z"/><path fill="#1C2F9A" d="M498.922 447.212C504.456 446.942 510.485 447.165 515.974 446.985C530.87 446.496 541.907 447.12 553.817 457.166C561.815 463.913 567.216 475.293 567.537 485.774C568.057 502.771 569.959 519.132 557.588 532.725C549.426 541.693 540.188 545.304 528.467 546.024C509.955 546.078 485.729 548.84 471.847 535.961C463.67 528.376 458.428 518.147 458.226 507.066C457.92 490.288 456.146 473.668 468.528 460.541C477.632 450.889 486.226 447.859 498.922 447.212Z"/><path fill="white" d="M494.639 459.095C500.659 458.682 525.929 458.403 531.309 459.356C535.265 460.042 539.049 461.496 542.447 463.634C549.045 467.745 553.668 474.38 555.241 481.992C556.232 486.7 556.061 491.002 556.119 495.713C556.237 505.326 556.411 513.442 550.804 521.73C545.844 529.063 540.023 532.208 531.619 533.903C524.258 534.713 516.595 534.457 509.179 534.568C500.391 534.7 492.636 535.069 484.73 530.486C477.854 526.504 472.934 519.853 471.139 512.113C470.059 507.509 470.196 502.54 470.206 497.865C470.228 488.54 469.648 480.301 474.856 472.105C479.881 464.196 486.032 461.122 494.639 459.095Z"/><path fill="#1C2F9A" d="M621.455 670.21C627.15 669.938 632.791 670.047 638.4 669.935C653.388 669.635 665.341 670.224 677.213 680.385C685.159 687.185 690.147 697.462 690.274 707.893C690.472 724.268 692.345 742.4 680.358 755.306C671.404 764.947 662.651 768.036 650.178 768.887C619.115 769.784 585.192 771.117 581.058 730.653C577.899 699.723 585.505 672.317 621.455 670.21Z"/><path fill="white" d="M622.799 681.737C645.593 681.712 675.282 677.303 678.439 709.154C680.651 731.471 676.606 756.184 649.05 757.136C627.319 757.524 596.607 762.019 593.196 730.63C590.636 707.059 593.563 683.73 622.799 681.737Z"/><path fill="#1C2F9A" d="M495.372 336.678C504.977 336.132 514.918 336.607 524.555 336.4C533.832 336.202 542.867 338.749 550.498 344.097C559.414 350.219 565.453 359.707 567.225 370.376C568.118 375.888 567.926 380.46 568.018 385.882C568.232 398.469 567.588 408.332 559.834 418.803C552.71 428.421 543.796 433.133 532.123 434.927C525.772 435.466 518.59 435.418 512.204 435.409C498.186 435.403 485.846 435.814 474.277 426.866C459.5 415.436 457.699 402.361 457.954 384.866C458.144 371.789 458.262 362.868 466.92 352.006C474.517 342.476 483.496 338.122 495.372 336.678Z"/><path fill="white" d="M493.934 348.595C499.153 348.116 527.136 348.087 531.867 348.878C534.898 349.4 537.824 350.413 540.529 351.877C554.399 359.359 555.414 369.516 555.791 383.834C556.273 402.142 553.328 417.17 532.621 422.832C526.294 424.321 503.808 423.434 496.203 423.211C493.855 423.142 488.957 421.489 486.709 420.394C479.703 416.982 474.38 410.875 471.958 403.469C469.411 395.751 469.373 371.014 474.128 363.313C479.703 354.283 484.472 351.417 493.934 348.595Z"/><path fill="#1C2F9A" d="M617.826 336.679L618.296 336.64C624.034 336.203 630.84 336.609 636.648 336.44C651.954 335.939 664.698 335.809 676.756 346.585C690.812 359.146 691.268 371.993 690.77 389.543C690.396 402.741 689.739 411.453 680.423 421.827C674.08 428.89 665.015 433.873 655.564 434.462C648.528 435.234 641.71 435.231 634.656 435.262C620.893 435.344 608.281 435.641 596.901 426.795C582.649 415.718 580.632 402.133 580.959 385.154C581.201 372.619 581.266 362.677 589.591 352.326C597.162 342.911 605.939 338.099 617.826 336.679Z"/><path fill="white" d="M618.192 348.587C628.859 347.974 645.618 347.78 655.593 349.018C672.752 351.148 678.931 367.129 678.94 381.773C678.952 402.787 677.501 416.765 654.941 423.031C649.668 423.804 623.016 423.849 618.006 422.996C614.158 422.375 610.462 421.027 607.117 419.024C601.444 415.63 594.973 408.181 594.179 401.506C591.471 378.757 590.637 354.289 618.192 348.587Z"/><path fill="#1C2F9A" d="M741.323 336.694C747.295 336.338 753.451 336.485 759.43 336.415C773.098 336.255 783.981 335.66 795.79 343.898C804.598 349.991 810.567 359.389 812.338 369.952C813.244 375.352 813.029 380.424 813.015 385.768C812.983 397.545 812.757 408.478 805.347 418.351C797.625 428.639 789.3 432.89 776.971 434.92C769.955 435.267 763.554 435.196 756.618 435.189C742.361 435.227 729.731 435.074 718.135 425.753C702.07 412.839 703.188 395.719 703.423 376.963C703.543 367.39 706.422 359.056 712.625 351.638C720.357 342.392 729.431 337.866 741.323 336.694Z"/><path fill="white" d="M741.205 348.628C745.732 348.064 751.129 348.689 755.755 348.359C774.607 347.015 795.115 348.936 799.957 371.324C801.13 376.75 801.177 395.74 799.746 401.545C798.915 405.013 797.449 408.296 795.421 411.229C790.31 418.606 783.591 421.742 775.122 423.358C769.208 423.893 744.047 424.128 738.694 423.046C735.184 422.313 731.848 420.908 728.871 418.907C722.215 414.531 717.596 407.664 716.054 399.848C715.182 395.184 715.47 391.187 715.448 386.579C715.402 377.065 715.444 368.344 721.231 360.279C726.463 352.989 732.785 350.125 741.205 348.628Z"/></svg>