<?xml version="1.0" encoding="utf-8" ?><svg xmlns="http://www.w3.org/2000/svg" xmlns:xlink="http://www.w3.org/1999/xlink" width="1024" height="1024" viewBox="0 0 1024 1024"><path fill="#4B68F5" d="M374.354 181.252L550.603 181.304L615.957 181.355C647.169 181.274 674.083 179.632 704.435 187.959C735.108 196.374 761.776 211.601 784.58 233.762C814.583 262.634 833.886 300.845 839.322 342.128C840.507 351.232 840.775 365.126 840.821 374.357C841.12 434.85 840.883 495.391 840.892 555.883L840.904 625.216C840.853 652.666 842.137 675.187 835.636 702.127C828.052 733.715 812.125 762.687 789.518 786.016C759.729 816.52 723.689 835.579 681.069 841.324C670.997 842.682 659.105 842.632 648.875 842.739C580.922 843.325 512.964 843.334 445.011 842.767L392.014 842.711C371.107 842.758 351.133 843.424 330.599 839.262C245.473 821.931 182.033 744.466 183.555 657.321C183.906 637.202 183.485 616.24 183.504 596.07L183.532 487.673L183.509 407.85C183.514 378.264 181.759 350.268 188.993 321.29C207.396 247.57 270.555 191.673 345.978 182.678C355.474 181.546 364.729 181.389 374.354 181.252Z"/><path fill="#1C2F9A" d="M643.305 409.225C660.392 408.812 674.277 407.824 688.455 419.173C696.404 425.537 703.413 437.998 703.835 447.979C704.595 465.963 704.345 484.955 704.347 503.05L704.359 603.163L704.376 677.916C704.381 690.553 704.762 704.846 703.681 717.34C703.143 723.562 698.528 733.038 694.206 737.702C683.792 748.942 674.778 751.839 660.201 752.898C642.824 753.4 626.617 754.488 612.919 742.185C604.546 734.665 599.402 722.555 599.136 711.472C598.665 691.945 598.84 672.059 598.846 652.508L598.837 545.441L598.842 478.941C598.85 471.315 598.402 451.79 599.434 445.196C600.796 436.944 604.56 429.278 610.257 423.155C619.622 412.945 629.932 409.813 643.305 409.225Z"/><path fill="#1C2F9A" d="M504.842 507.226C520.208 505.925 538.621 506.011 551.391 515.821C571.413 531.2 568.561 550.45 568.542 572.96L568.493 626.899L568.48 684.967C568.47 709.619 571.661 734.488 545.236 748.05C539.173 751.162 534.872 752.086 528.115 752.958C510.443 753.409 491.654 754.982 477.769 742.832C468.645 734.848 463.471 724.854 462.822 712.76C462.22 701.567 462.497 689.542 462.51 678.337L462.518 617.132L462.502 570.143C462.502 561.88 461.842 551.327 463.185 543.383C466.905 521.374 483.707 508.803 504.842 507.226Z"/><path fill="white" d="M588.302 272.593C611.562 271.222 611.857 287.17 614.606 304.958L618.582 330.561L622.927 358.72C623.882 364.999 624.964 371.126 625.175 377.432C625.72 388.218 614.246 397.674 603.944 397.084C593.182 396.468 584.365 383.938 577.713 376.376C559.424 407.199 527.249 440.322 500.176 463.587C458.709 498.666 410.423 524.772 358.363 540.26C349.739 542.738 335.212 546.693 326.589 546.047C324.752 545.56 322.418 544.833 320.757 543.969C315.962 541.443 312.361 537.121 310.743 531.948C308.225 523.841 311.053 511.703 318.923 507.19C325.155 503.616 335.066 502.893 342.084 500.592C348.783 498.396 355.982 496.719 362.667 494.331C424.465 472.848 481.763 431.388 522.628 380.401C527.17 374.733 538.305 360.979 541.354 354.957C536.29 354.308 531.064 353.526 526.075 352.895C514.768 351.466 504.38 350.605 500.202 338C497.087 328.601 501.87 319.345 509.999 314.378C518.292 309.312 527.299 305.048 535.828 300.402L568.397 282.474C573.204 279.843 583.407 273.884 588.302 272.593Z"/><path fill="#1C2F9A" d="M377.866 566.255L379.107 566.23C394.54 565.941 406.091 567.224 417.884 578.582C428.614 588.916 431.376 600.767 431.504 615.172L431.529 676.976C431.525 685.243 431.395 693.874 431.514 702.065C431.737 717.482 429.957 729.391 418.611 740.728C406.599 752.732 394.302 753.295 378.375 753.282C363.42 753.497 350.783 752.19 339.321 741.528C330.13 732.979 325.844 720.495 325.918 708.106C326.041 687.722 325.787 667.41 325.954 646.967C326.075 632.089 324.916 613.466 327.145 598.957C328.112 592.662 333.473 584 338.036 579.525C350.66 567.146 361.584 566.499 377.866 566.255Z"/></svg>