<?xml version="1.0" encoding="utf-8" ?><svg xmlns="http://www.w3.org/2000/svg" xmlns:xlink="http://www.w3.org/1999/xlink" width="1024" height="1024" viewBox="0 0 1024 1024"><path fill="#4B68F5" d="M338.649 146.22L339.532 146.186C365.023 145.399 393.752 146.009 419.463 146.017L563.802 146.021L644.822 146.04C652.189 146.041 660.715 146.33 667.951 146.017C780.034 141.161 875.91 229.78 879.683 342.038C880.424 364.063 879.833 387.242 879.85 409.65L879.871 541.576L879.752 631.001C879.705 660.99 881.4 692.407 874.568 721.76C854.481 808.058 776.462 875.148 686.99 878.218C686.413 878.26 685.835 878.295 685.256 878.323C664.137 879.289 637.793 878.486 616.252 878.493L484.58 878.487L393.477 878.565C362.593 878.575 331.721 880.428 301.577 873.304C212.509 852.257 147.118 772.512 144.747 680.938C144.203 659.929 144.488 638.636 144.484 617.548L144.533 495.765L144.492 399.184C144.487 366.932 142.869 335.668 150.018 304.061C157.59 270.288 173.73 239.033 196.885 213.306C233.343 172.988 284.356 148.848 338.649 146.22Z"/><path fill="#1C2F9A" d="M491.001 309.394C490.946 300.554 490.006 274.159 492.014 266.902C492.93 263.603 494.627 260.573 496.96 258.067C501.001 253.645 506.687 251.087 512.676 250.996C518.701 250.901 524.509 253.247 528.777 257.501C531.409 260.089 533.332 263.312 534.358 266.858C536.263 273.529 535.496 299.852 535.505 308.396C576.741 311.887 606.477 323.94 642.674 342.825C650.267 354.692 661.756 363.543 675.167 367.858C717.564 403.619 749.222 457.57 754.611 513.41C755.379 521.362 754.782 528.729 749.399 535.158C745.216 540.086 739.191 543.078 732.737 543.432C726.48 543.808 718.406 541.42 713.746 537.093C709.143 532.82 707.48 524.389 704.601 518.931C689.123 489.585 647.285 483.417 623.703 506.577C620.04 510.165 616.984 514.323 614.653 518.891C608.48 531.285 606.946 544.164 588.472 544.584C572.31 544.951 566.421 534.137 561.295 520.849C557.523 511.463 545.466 500.427 536.099 496.964C535.653 496.748 535.204 496.538 534.751 496.335C520.551 489.998 503.306 490.91 488.977 496.408C469.86 506.912 466.607 515.993 458.207 534.295C454.268 542.879 437.554 545.647 429.203 542.021C417.499 536.939 416.225 525.715 410.427 515.824C399.003 497.027 376.842 489.209 355.688 493.572C340.903 496.468 328.264 505.989 321.4 519.4C318.893 524.342 317.418 529.329 314.31 534.092C302.647 551.963 271.774 545.048 269.741 523.496C269.026 515.917 270.721 506.004 272.337 498.497C280.035 462.746 297.012 429.549 319.847 401.12C364.654 346.572 421.68 317.171 491.001 309.394Z"/><path fill="white" d="M271.011 604.989C274.933 605.928 280.258 607.097 283.664 609.157C294.47 615.695 296.963 620.194 309.546 622.349C338.315 627.275 341.923 602.043 366.619 605.25C387.436 607.953 391.031 626.722 416.945 622.976C440.329 619.596 436.006 603.78 463.515 605.442L463.627 633.702C463.678 650.084 464.439 658.411 456.483 673.328C444.51 695.035 415.923 705.023 393.425 694.814C385.446 691.155 374.203 679.62 364.429 682.308C345.854 687.418 345.409 698.817 322.841 698.837C309.106 698.745 295.968 693.207 286.311 683.439C270.994 668.093 270.845 651.185 270.907 631.444L271.011 604.989Z"/><path fill="white" d="M488.977 496.408C503.306 490.91 520.551 489.998 534.751 496.335C535.204 496.538 535.653 496.748 536.099 496.964L536.072 668.609L536.032 721.012C536.032 730.391 536.265 740.323 535.729 749.672C535.483 755.132 533.877 758.926 530.344 763.04C522.028 772.481 505.656 773.52 496.606 764.642C486.531 754.758 489.116 738.657 489.14 725.266L489.233 673.393L488.977 496.408Z"/><path fill="#F94B35" d="M642.674 342.825C626.793 318.008 631.056 285.366 652.778 265.46C674.5 245.554 707.389 244.148 730.729 262.129C754.07 280.11 761.102 312.27 747.395 338.351C733.689 364.433 703.215 376.882 675.167 367.858C661.756 363.543 650.267 354.692 642.674 342.825Z"/><path fill="white" d="M396.386 725.132C399.241 724.912 403.045 724.839 405.925 724.932C422.711 725.476 446.32 719.826 452.432 741.333C454.201 747.472 453.354 754.068 450.089 759.56C446.359 765.943 441.591 768.676 434.808 770.581C426.98 771.64 417.54 770.927 409.543 771.2C402.561 771.438 394.24 771.448 388.063 767.925C382.937 764.947 379.197 760.063 377.659 754.337C373.838 740.229 382.801 728.525 396.386 725.132Z"/><path fill="white" d="M314.499 724.771C323.578 724.339 331.123 723.824 338.642 730.325C343.547 734.499 346.477 740.538 346.72 746.974C347.192 757.529 340.563 767.815 330.336 770.081C322.515 771.813 310.736 771.076 302.627 771.043C293.892 771.098 286.678 771.822 279.444 765.9C268.694 757.283 267.878 742.566 277.072 732.484C286.323 722.339 301.751 725.04 314.499 724.771Z"/></svg>