<svg width="19" height="19" viewBox="0 0 19 19" fill="none" xmlns="http://www.w3.org/2000/svg">
<path d="M13.7828 12.2834C13.6018 12.102 13.3559 12 13.0996 12H12.8265C12.7517 12 12.6799 11.971 12.6262 11.9192C12.5161 11.813 12.5085 11.6397 12.6033 11.5197C13.4791 10.4107 14 9.01273 14 7.5C14 3.91 11.09 1 7.5 1C3.91 1 1 3.91 1 7.5C1 11.09 3.91 14 7.5 14C9.01273 14 10.4107 13.4791 11.5197 12.6033C11.6397 12.5085 11.813 12.5161 11.9192 12.6262C11.971 12.6799 12 12.7517 12 12.8265V13.0996C12 13.3559 12.102 13.6018 12.2834 13.7828L16.2929 17.7843C16.6835 18.1742 17.3162 18.1738 17.7064 17.7836L17.7836 17.7064C18.1738 17.3162 18.1742 16.6835 17.7843 16.2929L13.7828 12.2834ZM7.5 12C5.01 12 3 9.99 3 7.5C3 5.01 5.01 3 7.5 3C9.99 3 12 5.01 12 7.5C12 9.99 9.99 12 7.5 12Z" fill="white" stroke="#5176F3" stroke-linejoin="round"/>
</svg>
